#!OML:ASF F:\VICON\USERDATA\INSTALL\rory3\rory3.ASF
:FULLY-SPECIFIED
:DEGREES
196
root 1.01612 14.2814 -17.632 10.6134 0.317665 -2.53591
lowerback 22.4738 -0.132919 0.0473832
upperback 3.67079 0.112094 2.84956
thorax -8.5298 0.0917023 3.06587
lowerneck -22.8028 -4.48903 -7.80081
upperneck 0.888965 -4.5514 8.93473
head 4.22432 -1.73938 3.62272
rclavicle -6.55989e-015 3.97569e-015
rhumerus -29.3746 1.84929 -84.6858
rradius 71.5448
rwrist -8.82108
rhand -20.5307 23.6794
rfingers 7.12502
rthumb 5.82744 -6.22048
lclavicle -6.55989e-015 3.97569e-015
lhumerus -25.0135 0.319753 86.2752
lradius 62.4736
lwrist 7.45911
lhand -23.5392 18.692
lfingers 7.12502
lthumb 2.9224 48.6517
rfemur -55.7309 -3.475 25.6683
rtibia 88.9257
rfoot -29.1064 -9.58798
rtoes -11.9012
lfemur -58.2702 6.20483 -16.9961
ltibia 90.3152
lfoot -29.1997 -3.29908
ltoes -20.8782
197
root 1.01446 14.2242 -17.6192 10.3665 0.105696 -2.55102
lowerback 22.5646 -0.0597703 -0.0385068
upperback 3.70284 0.188853 2.87004
thorax -8.54682 0.130633 3.11646
lowerneck -22.6511 -4.47061 -8.02226
upperneck 1.04085 -4.49861 9.08026
head 4.2557 -1.70818 3.71113
rclavicle 4.57205e-015 -5.56597e-015
rhumerus -29.3414 1.95478 -84.664
rradius 71.7383
rwrist -8.73542
rhand -20.7202 23.8913
rfingers 7.12502
rthumb 5.64448 -6.01355
lclavicle 4.57205e-015 -5.56597e-015
lhumerus -24.9566 0.584906 86.4367
lradius 63.0949
lwrist 7.176
lhand -24.1213 20.2039
lfingers 7.12502
lthumb 2.3602 50.1706
rfemur -55.659 -3.34804 25.8138
rtibia 89.5418
rfoot -29.1936 -10.276
rtoes -12.8177
lfemur -58.2927 6.35021 -16.9171
ltibia 90.9609
lfoot -29.3895 -3.48504
ltoes -20.248
198
root 1.01498 14.1863 -17.6069 10.2799 0.0764085 -2.58843
lowerback 22.3964 -0.0499718 0.016491
upperback 3.72093 0.213312 2.8913
thorax -8.439 0.139786 3.09794
lowerneck -22.7219 -4.46891 -8.08518
upperneck 1.3794 -4.49204 9.0645
head 4.37207 -1.70213 3.71583
rclavicle 1.43125e-014 2.38542e-015
rhumerus -29.224 1.88636 -84.6615
rradius 71.8545
rwrist -8.52676
rhand -20.741 24.2311
rfingers 7.12502
rthumb 5.62444 -5.67428
lclavicle 1.43125e-014 2.38542e-015
lhumerus -24.8906 0.798998 86.5896
lradius 63.7177
lwrist 7.21521
lhand -24.3786 21.3841
lfingers 7.12502
lthumb 2.11175 51.3534
rfemur -55.7193 -3.26912 25.9333
rtibia 89.9767
rfoot -29.2468 -10.8071
rtoes -13.7761
lfemur -58.4185 6.26561 -16.8064
ltibia 91.4419
lfoot -29.5119 -3.33769
ltoes -20.6822
199
root 1.01452 14.1646 -17.5927 10.1103 0.160451 -2.58896
lowerback 22.3078 -0.0649227 0.0841867
upperback 3.69747 0.210016 2.90046
thorax -8.41768 0.13654 3.06896
lowerneck -22.5336 -4.46534 -8.12381
upperneck 1.48257 -4.49572 9.05679
head 4.37806 -1.70848 3.71978
rclavicle 3.97569e-016 2.38542e-015
rhumerus -29.129 1.70982 -84.6928
rradius 71.8603
rwrist -8.24863
rhand -20.9127 24.5627
rfingers 7.12502
rthumb 5.4586 -5.34698
lclavicle 3.97569e-016 2.38542e-015
lhumerus -24.97 0.90235 86.7349
lradius 64.3282
lwrist 7.52307
lhand -24.4478 21.6198
lfingers 7.12502
lthumb 2.04485 51.5898
rfemur -55.6003 -3.25014 25.9728
rtibia 90.2247
rfoot -29.2102 -11.2437
rtoes -15.2224
lfemur -58.3475 5.99532 -16.695
ltibia 91.7109
lfoot -29.5493 -3.23292
ltoes -21.1448
200
root 1.01242 14.1587 -17.5781 9.85763 0.192968 -2.58438
lowerback 22.342 -0.0897018 0.102076
upperback 3.69638 0.185648 2.93109
thorax -8.43578 0.125083 3.10008
lowerneck -22.6489 -4.43914 -8.05349
upperneck 1.77918 -4.46774 8.82956
head 4.47557 -1.70412 3.63724
rclavicle 9.14409e-015 3.18055e-015
rhumerus -29.1689 1.7339 -84.7109
rradius 72.086
rwrist -8.11472
rhand -21.0646 24.4175
rfingers 7.12502
rthumb 5.31195 -5.49591
lclavicle 9.14409e-015 3.18055e-015
lhumerus -25.0185 1.0395 86.8698
lradius 64.7697
lwrist 7.7898
lhand -24.7217 21.6472
lfingers 7.12502
lthumb 1.78039 51.6195
rfemur -55.297 -3.15369 25.9846
rtibia 90.2855
rfoot -29.1663 -11.585
rtoes -16.1126
lfemur -58.0209 5.73148 -16.579
ltibia 91.7625
lfoot -29.5903 -3.13039
ltoes -21.4438
201
root 1.01194 14.1726 -17.5643 9.70096 0.291759 -2.49418
lowerback 22.2542 -0.129211 0.151684
upperback 3.73647 0.139941 2.89312
thorax -8.34229 0.100396 3.04068
lowerneck -23.2244 -4.48287 -7.9207
upperneck 2.29826 -4.53028 8.63204
head 4.71744 -1.72963 3.54161
rclavicle -1.39149e-015 7.15625e-015
rhumerus -29.0496 1.69049 -84.7212
rradius 72.2956
rwrist -8.19837
rhand -21.0674 24.3646
rfingers 7.12502
rthumb 5.30926 -5.54886
lclavicle -1.39149e-015 7.15625e-015
lhumerus -24.756 1.03791 86.9571
lradius 64.9893
lwrist 8.23688
lhand -24.5998 21.2372
lfingers 7.12502
lthumb 1.89808 51.2085
rfemur -54.9887 -3.08891 25.8682
rtibia 90.1457
rfoot -29.1122 -11.806
rtoes -16.6036
lfemur -57.6569 5.32262 -16.58
ltibia 91.6136
lfoot -29.712 -2.83446
ltoes -21.4878
202
root 1.01071 14.192 -17.5465 9.56017 0.304926 -2.50607
lowerback 22.11 -0.132456 0.250683
upperback 3.7674 0.152511 2.86425
thorax -8.23212 0.10213 2.94533
lowerneck -23.5104 -4.54496 -7.99018
upperneck 2.52766 -4.59697 8.75854
head 4.84292 -1.74582 3.58448
rclavicle 3.97569e-016 -1.39149e-014
rhumerus -28.8831 1.55034 -84.7773
rradius 72.4013
rwrist -8.31209
rhand -21.1598 24.6683
rfingers 7.12502
rthumb 5.22002 -5.24742
lclavicle 3.97569e-016 -1.39149e-014
lhumerus -24.5192 0.949141 87.0458
lradius 65.2508
lwrist 8.871
lhand -24.3119 21.0879
lfingers 7.12502
lthumb 2.17609 51.0565
rfemur -54.647 -2.86719 25.8177
rtibia 89.8684
rfoot -29.0593 -11.8359
rtoes -16.1769
lfemur -57.243 5.03789 -16.4741
ltibia 91.3513
lfoot -29.8882 -2.67224
ltoes -21.1128
203
root 1.01025 14.2305 -17.519 9.3645 0.284299 -2.50319
lowerback 21.9907 -0.122202 0.287289
upperback 3.71652 0.172822 2.85864
thorax -8.22586 0.111065 2.91123
lowerneck -23.1057 -4.55249 -8.14315
upperneck 2.31082 -4.5962 8.90976
head 4.7246 -1.74778 3.66022
rclavicle -4.77083e-015 1.63003e-014
rhumerus -29.176 1.43916 -84.8052
rradius 72.8009
rwrist -8.46671
rhand -21.2095 24.6697
rfingers 7.12502
rthumb 5.17204 -5.24722
lclavicle -4.77083e-015 1.63003e-014
lhumerus -24.596 0.954649 87.1835
lradius 65.4968
lwrist 9.23067
lhand -24.3447 20.8714
lfingers 7.12502
lthumb 2.14447 50.8404
rfemur -54.1112 -2.60403 25.6902
rtibia 89.3958
rfoot -29.0108 -11.6171
rtoes -13.99
lfemur -56.5572 4.71253 -16.3796
ltibia 90.8757
lfoot -29.9129 -2.45851
ltoes -21.1346
204
root 1.01438 14.292 -17.4874 9.17021 0.261893 -2.45734
lowerback 21.9107 -0.127076 0.306096
upperback 3.59325 0.170829 2.83952
thorax -8.31899 0.110946 2.88079
lowerneck -22.7909 -4.4934 -8.02197
upperneck 2.23224 -4.5566 8.77011
head 4.64331 -1.74434 3.60167
rclavicle 4.77083e-015 3.61788e-014
rhumerus -29.6486 1.4345 -84.84
rradius 73.2551
rwrist -8.70243
rhand -21.1498 24.4371
rfingers 7.12502
rthumb 5.22974 -5.47832
lclavicle 4.77083e-015 3.61788e-014
lhumerus -24.7828 0.977552 87.318
lradius 65.7246
lwrist 9.42835
lhand -24.3044 20.4573
lfingers 7.12502
lthumb 2.18338 50.4259
rfemur -53.3257 -2.3647 25.4945
rtibia 88.6894
rfoot -28.8998 -11.5305
rtoes -11.7019
lfemur -55.6696 4.32222 -16.3771
ltibia 90.1771
lfoot -29.9079 -2.15604
ltoes -21.2808
205
root 1.01468 14.3584 -17.4656 9.07455 0.289893 -2.36041
lowerback 21.817 -0.119418 0.235351
upperback 3.48214 0.165195 2.83237
thorax -8.39148 0.111646 2.91558
lowerneck -23.1333 -4.47577 -7.88603
upperneck 2.51296 -4.54689 8.62558
head 4.77271 -1.73764 3.53223
rclavicle 5.96354e-016 7.95139e-016
rhumerus -29.9233 1.42126 -84.8365
rradius 73.5768
rwrist -8.85368
rhand -21.1608 24.3031
rfingers 7.12502
rthumb 5.21913 -5.61264
lclavicle 5.96354e-016 7.95139e-016
lhumerus -24.8342 0.901955 87.4665
lradius 66.0047
lwrist 9.55242
lhand -24.2071 21.1003
lfingers 7.12502
lthumb 2.27738 51.0679
rfemur -52.5873 -2.2362 25.3658
rtibia 87.8235
rfoot -28.6417 -11.7466
rtoes -10.434
lfemur -54.9295 3.91038 -16.4298
ltibia 89.34
lfoot -29.9134 -1.97744
ltoes -20.7079
206
root 1.00875 14.4334 -17.4442 8.97659 0.44423 -2.3257
lowerback 21.6037 -0.1467 0.159812
upperback 3.45123 0.113952 2.87856
thorax -8.30947 0.0898038 3.02119
lowerneck -23.4222 -4.45489 -7.93073
upperneck 2.61541 -4.50192 8.74091
head 4.84846 -1.70025 3.58059
rclavicle 9.93923e-016 7.95139e-016
rhumerus -30.0153 1.34958 -84.8312
rradius 73.8038
rwrist -8.84923
rhand -21.314 24.2521
rfingers 7.12502
rthumb 5.07113 -5.66722
lclavicle 9.93923e-016 7.95139e-016
lhumerus -24.8854 0.832846 87.6031
lradius 66.2464
lwrist 9.44286
lhand -24.5602 22.3418
lfingers 7.12502
lthumb 1.93633 52.3128
rfemur -51.7854 -2.19415 25.365
rtibia 86.798
rfoot -28.434 -11.9525
rtoes -10.1091
lfemur -54.1284 3.44304 -16.3744
ltibia 88.3447
lfoot -29.9372 -1.6816
ltoes -20.5615
